<svg width="30" height="30" viewBox="0 0 30 30" fill="none" xmlns="http://www.w3.org/2000/svg">
<circle cx="15" cy="15" r="15" fill="#2F6AC2"/>
<g clip-path="url(#clip0_1_257)">
<path d="M22.9152 19.6798C22.8958 19.638 22.8777 19.6034 22.861 19.5756C22.5834 19.0757 22.0529 18.462 21.2698 17.7345L21.2533 17.7178L21.245 17.7096L21.2366 17.7013H21.2282C20.8728 17.3625 20.6478 17.1347 20.5535 17.018C20.3811 16.7959 20.3425 16.571 20.4367 16.3432C20.5033 16.171 20.7534 15.8075 21.1865 15.252C21.4143 14.9576 21.5947 14.7217 21.7279 14.5439C22.6888 13.2665 23.1053 12.4502 22.9775 12.0948L22.9279 12.0117C22.8946 11.9617 22.8085 11.9159 22.6698 11.8742C22.5308 11.8326 22.3531 11.8257 22.1365 11.8534L19.7373 11.87C19.6985 11.8562 19.643 11.8575 19.5707 11.8742C19.4985 11.8909 19.4623 11.8993 19.4623 11.8993L19.4206 11.9201L19.3874 11.9452C19.3597 11.9618 19.3291 11.9909 19.2958 12.0326C19.2626 12.0741 19.2348 12.1228 19.2127 12.1783C18.9515 12.8503 18.6545 13.4751 18.3212 14.0527C18.1157 14.3971 17.927 14.6955 17.7546 14.9482C17.5825 15.2009 17.4381 15.387 17.3215 15.5063C17.2048 15.6257 17.0995 15.7214 17.0049 15.7937C16.9105 15.866 16.8384 15.8965 16.7884 15.8854C16.7384 15.8742 16.6913 15.8631 16.6467 15.852C16.569 15.802 16.5065 15.734 16.4593 15.6479C16.412 15.5618 16.3801 15.4535 16.3635 15.323C16.3469 15.1924 16.3371 15.08 16.3343 14.9856C16.3317 14.8913 16.3329 14.7578 16.3385 14.5857C16.3443 14.4134 16.3469 14.2969 16.3469 14.2358C16.3469 14.0247 16.351 13.7957 16.3593 13.5485C16.3677 13.3014 16.3745 13.1056 16.3802 12.9613C16.3858 12.8169 16.3885 12.6641 16.3885 12.5031C16.3885 12.342 16.3787 12.2157 16.3593 12.124C16.3401 12.0325 16.3108 11.9436 16.272 11.8574C16.2331 11.7713 16.1761 11.7048 16.1013 11.6575C16.0263 11.6103 15.9331 11.5728 15.8222 11.545C15.5278 11.4784 15.153 11.4423 14.6975 11.4367C13.6646 11.4256 13.0008 11.4923 12.7065 11.6367C12.5899 11.6978 12.4843 11.7811 12.39 11.8866C12.29 12.0088 12.276 12.0755 12.3482 12.0865C12.6815 12.1364 12.9174 12.2558 13.0563 12.4446L13.1063 12.5447C13.1452 12.6169 13.1841 12.7447 13.223 12.9279C13.2618 13.1111 13.2869 13.3138 13.2979 13.5359C13.3256 13.9414 13.3256 14.2885 13.2979 14.5772C13.2701 14.8661 13.2439 15.091 13.2188 15.252C13.1937 15.4131 13.1563 15.5436 13.1063 15.6435C13.0563 15.7435 13.023 15.8046 13.0063 15.8268C12.9896 15.8489 12.9757 15.8629 12.9647 15.8684C12.8925 15.8961 12.8175 15.9102 12.7398 15.9102C12.6619 15.9102 12.5676 15.8712 12.4565 15.7934C12.3455 15.7157 12.2303 15.6088 12.1109 15.4727C11.9914 15.3366 11.8567 15.1464 11.7067 14.9021C11.5568 14.6577 11.4013 14.3689 11.2403 14.0357L11.107 13.7941C11.0237 13.6386 10.9099 13.4123 10.7655 13.1152C10.621 12.818 10.4933 12.5306 10.3823 12.2529C10.3379 12.1362 10.2712 12.0475 10.1824 11.9864L10.1407 11.9613C10.113 11.9391 10.0685 11.9156 10.0074 11.8905C9.94631 11.8654 9.88253 11.8474 9.81582 11.8364L7.53326 11.853C7.30001 11.853 7.14175 11.9058 7.05841 12.0113L7.02506 12.0613C7.0084 12.0891 7 12.1335 7 12.1946C7 12.2557 7.01666 12.3307 7.05001 12.4195C7.38322 13.2026 7.74559 13.9579 8.1371 14.6854C8.52861 15.4129 8.86882 15.999 9.15754 16.443C9.44631 16.8874 9.74066 17.3067 10.0406 17.7009C10.3405 18.0953 10.539 18.348 10.6362 18.459C10.7334 18.5702 10.8098 18.6534 10.8653 18.7089L11.0736 18.9088C11.2069 19.0421 11.4026 19.2018 11.6609 19.3878C11.9192 19.5739 12.2052 19.7572 12.519 19.9378C12.8328 20.1182 13.1979 20.2653 13.6145 20.3792C14.031 20.4931 14.4364 20.5388 14.8307 20.5168H15.7888C15.9831 20.5 16.1303 20.4389 16.2303 20.3334L16.2635 20.2917C16.2858 20.2585 16.3066 20.207 16.3259 20.1377C16.3454 20.0683 16.3551 19.9918 16.3551 19.9087C16.3494 19.6699 16.3675 19.4547 16.4091 19.2631C16.4506 19.0716 16.4979 18.9272 16.5509 18.8299C16.6038 18.7328 16.6635 18.6508 16.7299 18.5843C16.7965 18.5177 16.8439 18.4774 16.8718 18.4635C16.8994 18.4495 16.9215 18.44 16.9382 18.4343C17.0715 18.3899 17.2283 18.4329 17.409 18.5636C17.5895 18.6941 17.7588 18.8552 17.9172 19.0467C18.0755 19.2384 18.2657 19.4535 18.4878 19.6923C18.71 19.9311 18.9044 20.1087 19.0709 20.2255L19.2375 20.3254C19.3487 20.3921 19.4931 20.4532 19.6708 20.5088C19.8483 20.5643 20.0037 20.5781 20.1372 20.5504L22.2698 20.5171C22.4807 20.5171 22.6448 20.4822 22.7612 20.4129C22.8779 20.3435 22.9472 20.267 22.9695 20.1838C22.9918 20.1006 22.993 20.0061 22.9738 19.9005C22.954 19.7951 22.9346 19.7214 22.9152 19.6798Z" fill="white"/>
</g>
<defs>
<clipPath id="clip0_1_257">
<rect width="16" height="16" fill="white" transform="translate(7 8)"/>
</clipPath>
</defs>
</svg>
