<svg width="30" height="30" viewBox="0 0 30 30" fill="none" xmlns="http://www.w3.org/2000/svg">
<g clip-path="url(#clip0_1_253)">
<path d="M15 30C23.2843 30 30 23.2843 30 15C30 6.71573 23.2843 0 15 0C6.71573 0 0 6.71573 0 15C0 23.2843 6.71573 30 15 30Z" fill="#25D366"/>
<path fill-rule="evenodd" clip-rule="evenodd" d="M20.6688 9.32516C19.1648 7.82656 17.1645 7.00088 15.0335 7C10.6423 7 7.06859 10.5566 7.06682 14.9279C7.06623 16.3252 7.433 17.6893 8.1302 18.8917L7 23L11.2232 21.8975C12.3869 22.5292 13.697 22.8622 15.0302 22.8625H15.0336C19.4242 22.8625 22.9983 19.3057 23 14.9342C23.0009 12.8157 22.173 10.8238 20.6688 9.32516ZM15.0335 21.5236H15.0307C13.8426 21.5231 12.6774 21.2053 11.6606 20.605L11.4189 20.4622L8.9128 21.1165L9.5817 18.6847L9.4242 18.4354C8.7614 17.3862 8.4113 16.1735 8.4119 14.9284C8.4133 11.2951 11.3838 8.33906 15.0361 8.33906C16.8047 8.33965 18.4673 9.02596 19.7174 10.2716C20.9675 11.5172 21.6556 13.1729 21.655 14.9337C21.6534 18.5673 18.6832 21.5236 15.0335 21.5236ZM18.6655 16.5881C18.4665 16.4889 17.4878 16.0098 17.3053 15.9436C17.123 15.8775 16.9901 15.8446 16.8575 16.0428C16.7248 16.2411 16.3433 16.6874 16.2272 16.8195C16.111 16.9517 15.995 16.9683 15.7959 16.8691C15.5968 16.77 14.9555 16.5607 14.1951 15.8858C13.6034 15.3605 13.2039 14.7118 13.0877 14.5135C12.9717 14.3151 13.0867 14.2182 13.1751 14.1092C13.3905 13.8429 13.6063 13.5637 13.6727 13.4316C13.7391 13.2994 13.7058 13.1836 13.656 13.0845C13.6063 12.9854 13.2082 12.0103 13.0424 11.6135C12.8807 11.2274 12.7167 11.2795 12.5944 11.2735C12.4785 11.2677 12.3457 11.2666 12.2129 11.2666C12.0803 11.2666 11.8646 11.3161 11.6821 11.5145C11.4997 11.7128 10.9855 12.192 10.9855 13.1671C10.9855 14.1422 11.6988 15.0842 11.7983 15.2165C11.8978 15.3487 13.2019 17.3497 15.1987 18.2077C15.6736 18.412 16.0444 18.5337 16.3335 18.625C16.8104 18.7758 17.2442 18.7545 17.5873 18.7036C17.9698 18.6466 18.7649 18.2243 18.9309 17.7616C19.0968 17.2988 19.0968 16.9022 19.0469 16.8195C18.9973 16.7369 18.8645 16.6874 18.6655 16.5881Z" fill="white"/>
</g>
<defs>
<clipPath id="clip0_1_253">
<rect width="30" height="30" fill="white"/>
</clipPath>
</defs>
</svg>
