<svg width="21" height="21" viewBox="0 0 21 21" fill="none" xmlns="http://www.w3.org/2000/svg">
<g id="Youtube_icon-icons.com_66802 3" clip-path="url(#clip0_1_268)">
<g id="_x34__stroke">
<g id="Youtube_1_">
<path id="Youtube" fill-rule="evenodd" clip-rule="evenodd" d="M20.79 6.27107C20.79 6.27107 20.5846 4.8137 19.9552 4.17205C19.1566 3.32943 18.2615 3.32549 17.8513 3.2766C14.9126 3.0625 10.5046 3.0625 10.5046 3.0625H10.4954C10.4954 3.0625 6.08738 3.0625 3.14869 3.2766C2.73787 3.32549 1.84341 3.32943 1.04409 4.17205C0.41475 4.81387 0.21 6.27107 0.21 6.27107C0.21 6.27107 0 7.9829 0 9.69391V11.2986C0 13.0103 0.21 14.7214 0.21 14.7214C0.21 14.7214 0.41475 16.1788 1.04409 16.8205C1.84341 17.6631 2.89275 17.6367 3.36 17.7246C5.04 17.8872 10.5 17.9374 10.5 17.9374C10.5 17.9374 14.9126 17.9308 17.8513 17.7167C18.2615 17.6672 19.1566 17.6632 19.9552 16.8206C20.5846 16.1788 20.79 14.7216 20.79 14.7216C20.79 14.7216 21 13.0104 21 11.2986V9.69391C21 7.9829 20.79 6.27107 20.79 6.27107ZM8.33175 13.2431L8.33109 7.30089L14.005 10.2822L8.33175 13.2431Z" fill="white"/>
</g>
</g>
</g>
<defs>
<clipPath id="clip0_1_268">
<rect width="21" height="21" fill="white"/>
</clipPath>
</defs>
</svg>
