<svg width="15" height="11" viewBox="0 0 15 11" fill="none" xmlns="http://www.w3.org/2000/svg">
<path fill-rule="evenodd" clip-rule="evenodd" d="M14.85 2.47934C14.85 2.47934 14.7033 1.43836 14.2538 0.980039C13.6833 0.378164 13.0439 0.375352 12.7509 0.34043C10.6519 0.1875 7.50328 0.1875 7.50328 0.1875H7.49672C7.49672 0.1875 4.34812 0.1875 2.24906 0.34043C1.95562 0.375352 1.31672 0.378164 0.745781 0.980039C0.29625 1.43848 0.15 2.47934 0.15 2.47934C0.15 2.47934 0 3.70207 0 4.92422V6.07043C0 7.29305 0.15 8.51531 0.15 8.51531C0.15 8.51531 0.29625 9.55629 0.745781 10.0146C1.31672 10.6165 2.06625 10.5976 2.4 10.6604C3.6 10.7766 7.5 10.8124 7.5 10.8124C7.5 10.8124 10.6519 10.8077 12.7509 10.6548C13.0439 10.6194 13.6833 10.6166 14.2538 10.0147C14.7033 9.55629 14.85 8.51543 14.85 8.51543C14.85 8.51543 15 7.29316 15 6.07043V4.92422C15 3.70207 14.85 2.47934 14.85 2.47934ZM5.95125 7.45934L5.95078 3.21492L10.0036 5.34445L5.95125 7.45934Z" fill="white"/>
</svg>
