<svg width="23" height="23" viewBox="0 0 23 23" fill="none" xmlns="http://www.w3.org/2000/svg">
<g id="ruler_pencil_icon_125169 1" clip-path="url(#clip0_1_151)">
<g id="Group">
<path id="Vector" d="M11.7066 0.230469H3.70263C3.44963 0.230469 3.26562 0.414469 3.26562 0.667469V22.0805C3.26562 22.3335 3.44963 22.5175 3.70263 22.5175H11.6836C11.9366 22.5175 12.1206 22.3335 12.1206 22.0805V0.667469C12.1436 0.414469 11.9366 0.230469 11.7066 0.230469ZM11.0396 21.4135L4.36963 21.3905V20.8385H6.57763C6.89963 20.8385 7.12962 20.5855 7.12962 20.2865C7.12962 19.9645 6.87663 19.7345 6.57763 19.7345H4.36963V18.6535H5.24362C5.56562 18.6535 5.79563 18.4005 5.79563 18.1015C5.79563 17.7795 5.54262 17.5495 5.24362 17.5495H4.36963V16.4685H5.24362C5.56562 16.4685 5.79563 16.2155 5.79563 15.9165C5.79563 15.5945 5.54262 15.3645 5.24362 15.3645L4.36963 15.3415V14.2605H6.57763C6.89963 14.2605 7.12962 14.0075 7.12962 13.7085C7.12962 13.3865 6.87663 13.1565 6.57763 13.1565L4.36963 13.1335V12.0525H5.24362C5.56562 12.0525 5.79563 11.7995 5.79563 11.5005C5.79563 11.1785 5.54262 10.9485 5.24362 10.9485H4.36963V9.86747H5.24362C5.56562 9.86747 5.79563 9.61447 5.79563 9.31547C5.79563 8.99347 5.54262 8.76347 5.24362 8.76347H4.36963V7.68247H6.57763C6.89963 7.68247 7.12962 7.42947 7.12962 7.13047C7.12962 6.80847 6.87663 6.57847 6.57763 6.57847H4.36963V5.49747H5.24362C5.56562 5.49747 5.79563 5.24447 5.79563 4.94547C5.79563 4.62347 5.54262 4.39347 5.24362 4.39347H4.36963V3.31247H5.24362C5.56562 3.31247 5.79563 3.05947 5.79563 2.76047C5.79563 2.43847 5.54262 2.20847 5.24362 2.20847H4.36963V1.42647H11.0396V21.4135Z" fill="black"/>
<path id="Vector_2" d="M19.2042 0.253469L13.8682 0.230469C13.6152 0.230469 13.4082 0.437469 13.4312 0.667469L13.4082 16.0775L16.5362 23.0005L19.6412 16.0775V0.690469C19.6412 0.437469 19.4572 0.253469 19.2042 0.253469ZM17.8242 16.4915H18.2612L16.5362 20.3095L14.8112 16.4915H15.2482C15.5702 16.4915 15.8002 16.2385 15.8002 15.9395C15.8002 15.6175 15.5472 15.3875 15.2482 15.3875H14.4892V5.52047H18.5142L18.5372 15.3875L17.8242 15.4105C17.5022 15.4105 17.2722 15.6635 17.2722 15.9625C17.2722 16.2615 17.5252 16.5145 17.8242 16.4915ZM18.5602 4.41647L14.5122 4.43947L14.5352 1.35747H18.5602V4.41647Z" fill="black"/>
</g>
</g>
<defs>
<clipPath id="clip0_1_151">
<rect width="23" height="23" fill="white"/>
</clipPath>
</defs>
</svg>
